# xmcd
#
# Track frame offsets:
#	150
#	16606
#	33188
#	90645
#	117878
#	134084
#	185541
#	226049
#	240155
#	255087
#	277445
#	299801
#	312783
#
# Disc length: 4363 seconds
#
# Revision: 1
# Processed by: cddbd v1.5PL3 Copyright (c) Steve Scherf et al.
# Submitted via: audiograbber 1.81.02
#
DISCID=aa11090d
DTITLE=The Black Gospel Pearls - His Eye is on the Sparrow Vol. 3
DYEAR=1900
DGENRE=Gospel
TTITLE0=We´ve come this far by faith
TTITLE1=I shall wear a golden crown
TTITLE2=Mahalia tribute
TTITLE3=Jesus dropped the charges
TTITLE4=Sign me up
TTITLE5=His eye is on the sparrow
TTITLE6=Oh happy day
TTITLE7=Long as I got Jesus
TTITLE8=Please be patient
TTITLE9=Hymn medley
TTITLE10=When the saints go marching
TTITLE11=Glory, glory, hallelujah
TTITLE12=Amen
EXTD=
EXTT0=
EXTT1=
EXTT2=
EXTT3=
EXTT4=
EXTT5=
EXTT6=
EXTT7=
EXTT8=
EXTT9=
EXTT10=
EXTT11=
EXTT12=
PLAYORDER=
